<svg id="visual" viewBox="0 0 900 600" width="900" height="600" xmlns="http://www.w3.org/2000/svg" xmlns:xlink="http://www.w3.org/1999/xlink" version="1.1"><path d="M0 239L10.7 242.3C21.3 245.7 42.7 252.3 64.2 263.3C85.7 274.3 107.3 289.7 128.8 286.3C150.3 283 171.7 261 193 249.2C214.3 237.3 235.7 235.7 257 244.2C278.3 252.7 299.7 271.3 321.2 284.2C342.7 297 364.3 304 385.8 302.7C407.3 301.3 428.7 291.7 450 287.5C471.3 283.3 492.7 284.7 514.2 279C535.7 273.3 557.3 260.7 578.8 253.2C600.3 245.7 621.7 243.3 643 243C664.3 242.7 685.7 244.3 707 242.7C728.3 241 749.7 236 771.2 245.5C792.7 255 814.3 279 835.8 286C857.3 293 878.7 283 889.3 278L900 273L900 0L889.3 0C878.7 0 857.3 0 835.8 0C814.3 0 792.7 0 771.2 0C749.7 0 728.3 0 707 0C685.7 0 664.3 0 643 0C621.7 0 600.3 0 578.8 0C557.3 0 535.7 0 514.2 0C492.7 0 471.3 0 450 0C428.7 0 407.3 0 385.8 0C364.3 0 342.7 0 321.2 0C299.7 0 278.3 0 257 0C235.7 0 214.3 0 193 0C171.7 0 150.3 0 128.8 0C107.3 0 85.7 0 64.2 0C42.7 0 21.3 0 10.7 0L0 0Z" fill="#c62368"></path><path d="M0 226L10.7 222.8C21.3 219.7 42.7 213.3 64.2 218.8C85.7 224.3 107.3 241.7 128.8 250.2C150.3 258.7 171.7 258.3 193 249.5C214.3 240.7 235.7 223.3 257 225.3C278.3 227.3 299.7 248.7 321.2 250.2C342.7 251.7 364.3 233.3 385.8 225.7C407.3 218 428.7 221 450 224.5C471.3 228 492.7 232 514.2 229.8C535.7 227.7 557.3 219.3 578.8 215.2C600.3 211 621.7 211 643 208.5C664.3 206 685.7 201 707 201.8C728.3 202.7 749.7 209.3 771.2 215.8C792.7 222.3 814.3 228.7 835.8 231.7C857.3 234.7 878.7 234.3 889.3 234.2L900 234L900 0L889.3 0C878.7 0 857.3 0 835.8 0C814.3 0 792.7 0 771.2 0C749.7 0 728.3 0 707 0C685.7 0 664.3 0 643 0C621.7 0 600.3 0 578.8 0C557.3 0 535.7 0 514.2 0C492.7 0 471.3 0 450 0C428.7 0 407.3 0 385.8 0C364.3 0 342.7 0 321.2 0C299.7 0 278.3 0 257 0C235.7 0 214.3 0 193 0C171.7 0 150.3 0 128.8 0C107.3 0 85.7 0 64.2 0C42.7 0 21.3 0 10.7 0L0 0Z" fill="#d13067"></path><path d="M0 222L10.7 213.8C21.3 205.7 42.7 189.3 64.2 188.2C85.7 187 107.3 201 128.8 203C150.3 205 171.7 195 193 197.3C214.3 199.7 235.7 214.3 257 215.5C278.3 216.7 299.7 204.3 321.2 202.3C342.7 200.3 364.3 208.7 385.8 204.2C407.3 199.7 428.7 182.3 450 184.5C471.3 186.7 492.7 208.3 514.2 208.8C535.7 209.3 557.3 188.7 578.8 185.8C600.3 183 621.7 198 643 198.7C664.3 199.3 685.7 185.7 707 188.2C728.3 190.7 749.7 209.3 771.2 208.8C792.7 208.3 814.3 188.7 835.8 184C857.3 179.3 878.7 189.7 889.3 194.8L900 200L900 0L889.3 0C878.7 0 857.3 0 835.8 0C814.3 0 792.7 0 771.2 0C749.7 0 728.3 0 707 0C685.7 0 664.3 0 643 0C621.7 0 600.3 0 578.8 0C557.3 0 535.7 0 514.2 0C492.7 0 471.3 0 450 0C428.7 0 407.3 0 385.8 0C364.3 0 342.7 0 321.2 0C299.7 0 278.3 0 257 0C235.7 0 214.3 0 193 0C171.7 0 150.3 0 128.8 0C107.3 0 85.7 0 64.2 0C42.7 0 21.3 0 10.7 0L0 0Z" fill="#dc3d65"></path><path d="M0 183L10.7 182.7C21.3 182.3 42.7 181.7 64.2 180.5C85.7 179.3 107.3 177.7 128.8 172C150.3 166.3 171.7 156.7 193 158.2C214.3 159.7 235.7 172.3 257 179.2C278.3 186 299.7 187 321.2 181C342.7 175 364.3 162 385.8 153C407.3 144 428.7 139 450 143C471.3 147 492.7 160 514.2 168.5C535.7 177 557.3 181 578.8 181.5C600.3 182 621.7 179 643 174.8C664.3 170.7 685.7 165.3 707 164.7C728.3 164 749.7 168 771.2 169.7C792.7 171.3 814.3 170.7 835.8 171.3C857.3 172 878.7 174 889.3 175L900 176L900 0L889.3 0C878.7 0 857.3 0 835.8 0C814.3 0 792.7 0 771.2 0C749.7 0 728.3 0 707 0C685.7 0 664.3 0 643 0C621.7 0 600.3 0 578.8 0C557.3 0 535.7 0 514.2 0C492.7 0 471.3 0 450 0C428.7 0 407.3 0 385.8 0C364.3 0 342.7 0 321.2 0C299.7 0 278.3 0 257 0C235.7 0 214.3 0 193 0C171.7 0 150.3 0 128.8 0C107.3 0 85.7 0 64.2 0C42.7 0 21.3 0 10.7 0L0 0Z" fill="#e64964"></path><path d="M0 100L10.7 103.8C21.3 107.7 42.7 115.3 64.2 117C85.7 118.7 107.3 114.3 128.8 114.2C150.3 114 171.7 118 193 118.3C214.3 118.7 235.7 115.3 257 113.7C278.3 112 299.7 112 321.2 112C342.7 112 364.3 112 385.8 114C407.3 116 428.7 120 450 118.3C471.3 116.7 492.7 109.3 514.2 108C535.7 106.7 557.3 111.3 578.8 113.8C600.3 116.3 621.7 116.7 643 115.5C664.3 114.3 685.7 111.7 707 109.8C728.3 108 749.7 107 771.2 106.7C792.7 106.3 814.3 106.7 835.8 111C857.3 115.3 878.7 123.7 889.3 127.8L900 132L900 0L889.3 0C878.7 0 857.3 0 835.8 0C814.3 0 792.7 0 771.2 0C749.7 0 728.3 0 707 0C685.7 0 664.3 0 643 0C621.7 0 600.3 0 578.8 0C557.3 0 535.7 0 514.2 0C492.7 0 471.3 0 450 0C428.7 0 407.3 0 385.8 0C364.3 0 342.7 0 321.2 0C299.7 0 278.3 0 257 0C235.7 0 214.3 0 193 0C171.7 0 150.3 0 128.8 0C107.3 0 85.7 0 64.2 0C42.7 0 21.3 0 10.7 0L0 0Z" fill="#ef5663"></path><path d="M0 78L10.7 78.3C21.3 78.7 42.7 79.3 64.2 80.3C85.7 81.3 107.3 82.7 128.8 81.7C150.3 80.7 171.7 77.3 193 78.3C214.3 79.3 235.7 84.7 257 84.3C278.3 84 299.7 78 321.2 76.8C342.7 75.7 364.3 79.3 385.8 81.5C407.3 83.7 428.7 84.3 450 87.3C471.3 90.3 492.7 95.7 514.2 99.5C535.7 103.3 557.3 105.7 578.8 100.8C600.3 96 621.7 84 643 84C664.3 84 685.7 96 707 97.5C728.3 99 749.7 90 771.2 86C792.7 82 814.3 83 835.8 84.8C857.3 86.7 878.7 89.3 889.3 90.7L900 92L900 0L889.3 0C878.7 0 857.3 0 835.8 0C814.3 0 792.7 0 771.2 0C749.7 0 728.3 0 707 0C685.7 0 664.3 0 643 0C621.7 0 600.3 0 578.8 0C557.3 0 535.7 0 514.2 0C492.7 0 471.3 0 450 0C428.7 0 407.3 0 385.8 0C364.3 0 342.7 0 321.2 0C299.7 0 278.3 0 257 0C235.7 0 214.3 0 193 0C171.7 0 150.3 0 128.8 0C107.3 0 85.7 0 64.2 0C42.7 0 21.3 0 10.7 0L0 0Z" fill="#f76262"></path><path d="M0 44L10.7 43.8C21.3 43.7 42.7 43.3 64.2 44.5C85.7 45.7 107.3 48.3 128.8 48.5C150.3 48.7 171.7 46.3 193 45C214.3 43.7 235.7 43.3 257 43.7C278.3 44 299.7 45 321.2 44.7C342.7 44.3 364.3 42.7 385.8 42.8C407.3 43 428.7 45 450 48.8C471.3 52.7 492.7 58.3 514.2 59.5C535.7 60.7 557.3 57.3 578.8 57.2C600.3 57 621.7 60 643 58.3C664.3 56.7 685.7 50.3 707 50C728.3 49.7 749.7 55.3 771.2 54.3C792.7 53.3 814.3 45.7 835.8 43.5C857.3 41.3 878.7 44.7 889.3 46.3L900 48L900 0L889.3 0C878.7 0 857.3 0 835.8 0C814.3 0 792.7 0 771.2 0C749.7 0 728.3 0 707 0C685.7 0 664.3 0 643 0C621.7 0 600.3 0 578.8 0C557.3 0 535.7 0 514.2 0C492.7 0 471.3 0 450 0C428.7 0 407.3 0 385.8 0C364.3 0 342.7 0 321.2 0C299.7 0 278.3 0 257 0C235.7 0 214.3 0 193 0C171.7 0 150.3 0 128.8 0C107.3 0 85.7 0 64.2 0C42.7 0 21.3 0 10.7 0L0 0Z" fill="#ff6f61"></path></svg>