<?xml version="1.0" standalone="no"?><svg xmlns="http://www.w3.org/2000/svg" viewBox="0 0 1440 320"><path fill="#e05937c0" fill-opacity="1" d="M0,32L21.8,53.3C43.6,75,87,117,131,128C174.5,139,218,117,262,96C305.5,75,349,53,393,74.7C436.4,96,480,160,524,186.7C567.3,213,611,203,655,202.7C698.2,203,742,213,785,218.7C829.1,224,873,224,916,224C960,224,1004,224,1047,192C1090.9,160,1135,96,1178,69.3C1221.8,43,1265,53,1309,53.3C1352.7,53,1396,43,1418,37.3L1440,32L1440,0L1418.2,0C1396.4,0,1353,0,1309,0C1265.5,0,1222,0,1178,0C1134.5,0,1091,0,1047,0C1003.6,0,960,0,916,0C872.7,0,829,0,785,0C741.8,0,698,0,655,0C610.9,0,567,0,524,0C480,0,436,0,393,0C349.1,0,305,0,262,0C218.2,0,175,0,131,0C87.3,0,44,0,22,0L0,0Z"></path></svg>